<svg width="185" height="18" viewBox="0 0 185 18" fill="none" xmlns="http://www.w3.org/2000/svg">
<path opacity="0.86" d="M6.63997 17.2346C5.54504 17.2346 4.55178 16.9765 3.6602 16.4604C2.78425 15.9442 2.08819 15.2481 1.57201 14.3722C1.07147 13.4806 0.821198 12.4951 0.821198 11.4159C0.821198 10.3209 1.07147 9.33549 1.57201 8.45954C2.08819 7.5836 2.78425 6.89536 3.6602 6.39482C4.55178 5.87864 5.54504 5.62055 6.63997 5.62055C7.50027 5.62055 8.29801 5.78479 9.03318 6.11326C9.76834 6.4261 10.4018 6.88754 10.9337 7.49757L9.52589 8.90534C9.18177 8.49865 8.75944 8.19363 8.2589 7.99029C7.77401 7.7713 7.23436 7.66181 6.63997 7.66181C5.93609 7.66181 5.31041 7.82605 4.76295 8.15453C4.21548 8.46736 3.78533 8.90534 3.47249 9.46844C3.15966 10.0316 3.00324 10.6807 3.00324 11.4159C3.00324 12.151 3.15966 12.8002 3.47249 13.3633C3.78533 13.9264 4.21548 14.3722 4.76295 14.7006C5.31041 15.0291 5.93609 15.1934 6.63997 15.1934C7.23436 15.1934 7.77401 15.0917 8.2589 14.8883C8.75944 14.6694 9.18959 14.3565 9.54936 13.9498L10.9337 15.3576C10.4175 15.952 9.78398 16.4134 9.03318 16.7419C8.29801 17.0704 7.50027 17.2346 6.63997 17.2346ZM17.5383 17.2346C16.5215 17.2346 15.5987 16.9844 14.7696 16.4838C13.9406 15.9676 13.2837 15.2716 12.7988 14.3956C12.3295 13.5197 12.0949 12.5342 12.0949 11.4393C12.0949 10.3444 12.3295 9.35895 12.7988 8.48301C13.2837 7.60706 13.9328 6.911 14.7462 6.39482C15.5752 5.87864 16.5059 5.62055 17.5383 5.62055C18.3829 5.62055 19.1337 5.80043 19.7907 6.16019C20.4633 6.50431 21.0029 6.98921 21.4096 7.61488C21.8163 8.22492 22.0431 8.93662 22.09 9.75V13.1052C22.0431 13.9029 21.8163 14.6146 21.4096 15.2403C21.0186 15.866 20.4867 16.3587 19.8141 16.7184C19.1572 17.0626 18.3986 17.2346 17.5383 17.2346ZM17.8902 15.2403C18.9382 15.2403 19.7829 14.8883 20.4242 14.1845C21.0655 13.4649 21.3862 12.5499 21.3862 11.4393C21.3862 10.6729 21.2376 10.0081 20.9404 9.44498C20.6588 8.86623 20.2521 8.42044 19.7203 8.1076C19.1885 7.77912 18.5706 7.61488 17.8667 7.61488C17.1628 7.61488 16.5372 7.77912 15.9897 8.1076C15.4579 8.43608 15.0356 8.88969 14.7227 9.46844C14.4255 10.0316 14.2769 10.6807 14.2769 11.4159C14.2769 12.1667 14.4255 12.8314 14.7227 13.4102C15.0356 13.9733 15.4657 14.4191 16.0132 14.7476C16.5606 15.0761 17.1863 15.2403 17.8902 15.2403ZM21.2454 17V13.9968L21.6442 11.2751L21.2454 8.57686V5.85517H23.3805V17H21.2454ZM28.0045 17V4.18932C28.0045 3.3603 28.1844 2.64077 28.5441 2.03074C28.9039 1.40506 29.3966 0.912345 30.0223 0.552582C30.6636 0.19282 31.4066 0.0129381 32.2513 0.0129381C32.8926 0.0129381 33.4479 0.122431 33.9171 0.341417C34.3864 0.560403 34.8165 0.881061 35.2076 1.30339L33.8233 2.66423C33.6199 2.44525 33.3931 2.28101 33.1428 2.17152C32.8926 2.04638 32.5876 1.98381 32.2278 1.98381C31.5552 1.98381 31.0312 2.17934 30.6558 2.57038C30.296 2.96143 30.1161 3.50107 30.1161 4.18932V17H28.0045ZM25.2593 7.77912V5.85517H33.659V7.77912H25.2593ZM40.3006 17.2346C39.1901 17.2346 38.189 16.9844 37.2974 16.4838C36.4058 15.9676 35.7019 15.2716 35.1858 14.3956C34.6696 13.5197 34.4115 12.5264 34.4115 11.4159C34.4115 10.3209 34.6618 9.33549 35.1623 8.45954C35.6785 7.5836 36.3667 6.89536 37.227 6.39482C38.103 5.87864 39.0806 5.62055 40.1599 5.62055C41.1922 5.62055 42.0995 5.85517 42.8816 6.32443C43.6793 6.79369 44.2971 7.44282 44.7351 8.27184C45.1887 9.10086 45.4155 10.0394 45.4155 11.0874C45.4155 11.2438 45.4077 11.4159 45.3921 11.6036C45.3764 11.7756 45.3451 11.979 45.2982 12.2136H35.8896V10.4539H44.172L43.3977 11.1343C43.3977 10.3835 43.2648 9.75 42.9989 9.23382C42.733 8.70199 42.3575 8.2953 41.8727 8.01375C41.3878 7.71656 40.8012 7.56796 40.1129 7.56796C39.3934 7.56796 38.7599 7.72438 38.2125 8.03721C37.665 8.35005 37.2427 8.78802 36.9455 9.35113C36.6483 9.91424 36.4997 10.579 36.4997 11.3455C36.4997 12.1276 36.6561 12.8158 36.9689 13.4102C37.2818 13.9889 37.7276 14.4426 38.3063 14.771C38.8851 15.0839 39.5498 15.2403 40.3006 15.2403C40.9263 15.2403 41.4972 15.1308 42.0134 14.9118C42.5453 14.6928 42.9989 14.3643 43.3743 13.9264L44.7351 15.3107C44.2033 15.9364 43.5463 16.4134 42.7642 16.7419C41.9978 17.0704 41.1766 17.2346 40.3006 17.2346ZM52.434 17.2346C51.4017 17.2346 50.4788 16.9844 49.6654 16.4838C48.852 15.9676 48.2029 15.2716 47.718 14.3956C47.2487 13.5197 47.0141 12.5342 47.0141 11.4393C47.0141 10.3444 47.2487 9.35895 47.718 8.48301C48.2029 7.60706 48.852 6.911 49.6654 6.39482C50.4788 5.87864 51.4017 5.62055 52.434 5.62055C53.263 5.62055 54.0139 5.80043 54.6864 6.16019C55.3591 6.50431 55.8987 6.98921 56.3054 7.61488C56.7277 8.22492 56.9623 8.93662 57.0093 9.75V13.1052C56.9623 13.9029 56.7355 14.6146 56.3288 15.2403C55.9222 15.866 55.3825 16.3587 54.7099 16.7184C54.0373 17.0626 53.2787 17.2346 52.434 17.2346ZM52.786 15.2403C53.4898 15.2403 54.0999 15.0761 54.6161 14.7476C55.1479 14.4191 55.5624 13.9733 55.8596 13.4102C56.1568 12.8314 56.3054 12.1745 56.3054 11.4393C56.3054 10.6729 56.149 10.0081 55.8361 9.44498C55.5389 8.88187 55.1244 8.43608 54.5926 8.1076C54.0764 7.77912 53.4664 7.61488 52.7625 7.61488C52.0586 7.61488 51.4408 7.77912 50.9089 8.1076C50.3771 8.43608 49.9548 8.88969 49.6419 9.46844C49.3448 10.0316 49.1962 10.6807 49.1962 11.4159C49.1962 12.1667 49.3448 12.8314 49.6419 13.4102C49.9548 13.9733 50.3771 14.4191 50.9089 14.7476C51.4564 15.0761 52.0821 15.2403 52.786 15.2403ZM58.2997 17H56.1646V13.9968L56.5635 11.2751L56.1646 8.57686V0.247566H58.2997V17ZM66.5359 17.2346C65.4253 17.2346 64.4242 16.9844 63.5327 16.4838C62.6411 15.9676 61.9372 15.2716 61.421 14.3956C60.9048 13.5197 60.6467 12.5264 60.6467 11.4159C60.6467 10.3209 60.897 9.33549 61.3975 8.45954C61.9137 7.5836 62.602 6.89536 63.4623 6.39482C64.3382 5.87864 65.3158 5.62055 66.3951 5.62055C67.4275 5.62055 68.3347 5.85517 69.1168 6.32443C69.9145 6.79369 70.5324 7.44282 70.9704 8.27184C71.424 9.10086 71.6508 10.0394 71.6508 11.0874C71.6508 11.2438 71.643 11.4159 71.6273 11.6036C71.6117 11.7756 71.5804 11.979 71.5335 12.2136H62.1249V10.4539H70.4073L69.633 11.1343C69.633 10.3835 69.5 9.75 69.2341 9.23382C68.9682 8.70199 68.5928 8.2953 68.1079 8.01375C67.623 7.71656 67.0364 7.56796 66.3482 7.56796C65.6287 7.56796 64.9952 7.72438 64.4477 8.03721C63.9002 8.35005 63.4779 8.78802 63.1807 9.35113C62.8835 9.91424 62.7349 10.579 62.7349 11.3455C62.7349 12.1276 62.8913 12.8158 63.2042 13.4102C63.517 13.9889 63.9628 14.4426 64.5416 14.771C65.1203 15.0839 65.7851 15.2403 66.5359 15.2403C67.1616 15.2403 67.7325 15.1308 68.2487 14.9118C68.7805 14.6928 69.2341 14.3643 69.6095 13.9264L70.9704 15.3107C70.4385 15.9364 69.7816 16.4134 68.9995 16.7419C68.233 17.0704 67.4118 17.2346 66.5359 17.2346ZM78.6927 17.2346C77.676 17.2346 76.7531 16.9844 75.9241 16.4838C75.0951 15.9676 74.4382 15.2716 73.9533 14.3956C73.484 13.5197 73.2494 12.5342 73.2494 11.4393C73.2494 10.3444 73.484 9.35895 73.9533 8.48301C74.4382 7.60706 75.0873 6.911 75.9007 6.39482C76.7297 5.87864 77.6604 5.62055 78.6927 5.62055C79.5374 5.62055 80.2882 5.80043 80.9452 6.16019C81.6178 6.50431 82.1574 6.98921 82.5641 7.61488C82.9708 8.22492 83.1976 8.93662 83.2445 9.75V13.1052C83.1976 13.9029 82.9708 14.6146 82.5641 15.2403C82.1731 15.866 81.6412 16.3587 80.9686 16.7184C80.3117 17.0626 79.553 17.2346 78.6927 17.2346ZM79.0447 15.2403C80.0927 15.2403 80.9373 14.8883 81.5787 14.1845C82.22 13.4649 82.5406 12.5499 82.5406 11.4393C82.5406 10.6729 82.392 10.0081 82.0948 9.44498C81.8133 8.86623 81.4066 8.42044 80.8748 8.1076C80.343 7.77912 79.7251 7.61488 79.0212 7.61488C78.3173 7.61488 77.6917 7.77912 77.1442 8.1076C76.6124 8.43608 76.19 8.88969 75.8772 9.46844C75.58 10.0316 75.4314 10.6807 75.4314 11.4159C75.4314 12.1667 75.58 12.8314 75.8772 13.4102C76.19 13.9733 76.6202 14.4191 77.1677 14.7476C77.7151 15.0761 78.3408 15.2403 79.0447 15.2403ZM82.3999 17V13.9968L82.7987 11.2751L82.3999 8.57686V5.85517H84.535V17H82.3999ZM87.6093 17V0.247566H89.721V17H87.6093ZM94.5233 17V1.18608H96.635V17H94.5233ZM91.7782 7.77912V5.85517H99.3801V7.77912H91.7782ZM105.93 17.2346C105.023 17.2346 104.202 17.0313 103.467 16.6246C102.747 16.2023 102.184 15.6235 101.777 14.8883C101.37 14.1532 101.167 13.3007 101.167 12.3309V5.85517H103.279V12.2371C103.279 12.8471 103.38 13.3789 103.584 13.8325C103.803 14.2705 104.116 14.6068 104.522 14.8414C104.929 15.0761 105.406 15.1934 105.954 15.1934C106.783 15.1934 107.432 14.9353 107.901 14.4191C108.37 13.8873 108.605 13.1599 108.605 12.2371V5.85517H110.717V12.3309C110.717 13.3007 110.513 14.1532 110.106 14.8883C109.7 15.6235 109.137 16.2023 108.417 16.6246C107.713 17.0313 106.884 17.2346 105.93 17.2346ZM113.547 17V5.85517H115.658V17H113.547ZM115.658 10.6416L114.861 10.2896C114.861 8.86623 115.189 7.7322 115.846 6.88754C116.503 6.04288 117.449 5.62055 118.685 5.62055C119.248 5.62055 119.757 5.72222 120.21 5.92556C120.664 6.11326 121.086 6.43392 121.477 6.88754L120.093 8.31877C119.858 8.0685 119.6 7.88862 119.319 7.77912C119.037 7.66963 118.709 7.61488 118.333 7.61488C117.551 7.61488 116.91 7.86515 116.409 8.36569C115.909 8.86623 115.658 9.62486 115.658 10.6416ZM127.337 17.2346C126.32 17.2346 125.397 16.9844 124.568 16.4838C123.739 15.9676 123.082 15.2716 122.597 14.3956C122.128 13.5197 121.893 12.5342 121.893 11.4393C121.893 10.3444 122.128 9.35895 122.597 8.48301C123.082 7.60706 123.731 6.911 124.545 6.39482C125.374 5.87864 126.304 5.62055 127.337 5.62055C128.181 5.62055 128.932 5.80043 129.589 6.16019C130.262 6.50431 130.801 6.98921 131.208 7.61488C131.615 8.22492 131.842 8.93662 131.889 9.75V13.1052C131.842 13.9029 131.615 14.6146 131.208 15.2403C130.817 15.866 130.285 16.3587 129.613 16.7184C128.956 17.0626 128.197 17.2346 127.337 17.2346ZM127.689 15.2403C128.737 15.2403 129.581 14.8883 130.223 14.1845C130.864 13.4649 131.185 12.5499 131.185 11.4393C131.185 10.6729 131.036 10.0081 130.739 9.44498C130.457 8.86623 130.051 8.42044 129.519 8.1076C128.987 7.77912 128.369 7.61488 127.665 7.61488C126.961 7.61488 126.336 7.77912 125.788 8.1076C125.256 8.43608 124.834 8.88969 124.521 9.46844C124.224 10.0316 124.075 10.6807 124.075 11.4159C124.075 12.1667 124.224 12.8314 124.521 13.4102C124.834 13.9733 125.264 14.4191 125.812 14.7476C126.359 15.0761 126.985 15.2403 127.689 15.2403ZM131.044 17V13.9968L131.443 11.2751L131.044 8.57686V5.85517H133.179V17H131.044ZM138.107 17.2346C137.669 17.2346 137.301 17.086 137.004 16.7888C136.723 16.476 136.582 16.1084 136.582 15.6861C136.582 15.2481 136.723 14.8883 137.004 14.6068C137.301 14.3096 137.669 14.161 138.107 14.161C138.545 14.161 138.905 14.3096 139.186 14.6068C139.483 14.8883 139.632 15.2481 139.632 15.6861C139.632 16.1084 139.483 16.476 139.186 16.7888C138.905 17.086 138.545 17.2346 138.107 17.2346ZM147.692 17.2346C146.597 17.2346 145.603 16.9765 144.712 16.4604C143.836 15.9442 143.14 15.2481 142.624 14.3722C142.123 13.4806 141.873 12.4951 141.873 11.4159C141.873 10.3209 142.123 9.33549 142.624 8.45954C143.14 7.5836 143.836 6.89536 144.712 6.39482C145.603 5.87864 146.597 5.62055 147.692 5.62055C148.552 5.62055 149.35 5.78479 150.085 6.11326C150.82 6.4261 151.454 6.88754 151.985 7.49757L150.578 8.90534C150.233 8.49865 149.811 8.19363 149.311 7.99029C148.826 7.7713 148.286 7.66181 147.692 7.66181C146.988 7.66181 146.362 7.82605 145.815 8.15453C145.267 8.46736 144.837 8.90534 144.524 9.46844C144.211 10.0316 144.055 10.6807 144.055 11.4159C144.055 12.151 144.211 12.8002 144.524 13.3633C144.837 13.9264 145.267 14.3722 145.815 14.7006C146.362 15.0291 146.988 15.1934 147.692 15.1934C148.286 15.1934 148.826 15.0917 149.311 14.8883C149.811 14.6694 150.241 14.3565 150.601 13.9498L151.985 15.3576C151.469 15.952 150.836 16.4134 150.085 16.7419C149.35 17.0704 148.552 17.2346 147.692 17.2346ZM158.942 17.2346C157.847 17.2346 156.862 16.9765 155.986 16.4604C155.11 15.9442 154.414 15.2481 153.897 14.3722C153.381 13.4806 153.123 12.4873 153.123 11.3924C153.123 10.3131 153.381 9.34331 153.897 8.48301C154.414 7.60706 155.11 6.911 155.986 6.39482C156.862 5.87864 157.847 5.62055 158.942 5.62055C160.021 5.62055 160.999 5.87864 161.875 6.39482C162.766 6.89536 163.47 7.5836 163.986 8.45954C164.503 9.33549 164.761 10.3131 164.761 11.3924C164.761 12.4873 164.503 13.4806 163.986 14.3722C163.47 15.2481 162.766 15.9442 161.875 16.4604C160.999 16.9765 160.021 17.2346 158.942 17.2346ZM158.942 15.1934C159.646 15.1934 160.271 15.0291 160.819 14.7006C161.366 14.3722 161.797 13.9264 162.109 13.3633C162.422 12.7845 162.579 12.1276 162.579 11.3924C162.579 10.6729 162.414 10.0316 162.086 9.46844C161.773 8.90534 161.343 8.46736 160.795 8.15453C160.264 7.82605 159.646 7.66181 158.942 7.66181C158.238 7.66181 157.612 7.82605 157.065 8.15453C156.517 8.46736 156.087 8.90534 155.774 9.46844C155.462 10.0316 155.305 10.6729 155.305 11.3924C155.305 12.1276 155.462 12.7845 155.774 13.3633C156.087 13.9264 156.517 14.3722 157.065 14.7006C157.612 15.0291 158.238 15.1934 158.942 15.1934ZM167.14 17V5.85517H169.252V17H167.14ZM174.672 17V10.2662C174.672 9.43716 174.413 8.78802 173.897 8.31877C173.397 7.83387 172.763 7.59142 171.997 7.59142C171.481 7.59142 171.019 7.70091 170.612 7.9199C170.206 8.13889 169.877 8.4439 169.627 8.83495C169.377 9.22599 169.252 9.69525 169.252 10.2427L168.383 9.82039C168.383 8.97572 168.563 8.24056 168.923 7.61488C169.299 6.98921 169.807 6.50431 170.448 6.16019C171.09 5.80043 171.809 5.62055 172.607 5.62055C173.389 5.62055 174.093 5.79261 174.718 6.13673C175.36 6.48085 175.86 6.96575 176.22 7.59142C176.595 8.21709 176.783 8.96008 176.783 9.82039V17H174.672ZM182.203 17V10.2662C182.203 9.43716 181.945 8.78802 181.429 8.31877C180.928 7.83387 180.303 7.59142 179.552 7.59142C179.036 7.59142 178.566 7.70091 178.144 7.9199C177.737 8.13889 177.409 8.4439 177.159 8.83495C176.908 9.22599 176.783 9.69525 176.783 10.2427L175.587 9.82039C175.633 8.96008 175.86 8.22492 176.267 7.61488C176.689 6.98921 177.229 6.50431 177.886 6.16019C178.543 5.80043 179.262 5.62055 180.044 5.62055C180.858 5.62055 181.585 5.79261 182.227 6.13673C182.868 6.48085 183.376 6.96575 183.752 7.59142C184.143 8.21709 184.338 8.9679 184.338 9.84385V17H182.203Z" fill="white"/>
</svg>
