<svg width="288" height="36" viewBox="0 0 288 36" fill="none" xmlns="http://www.w3.org/2000/svg">
<path d="M6.63997 26.2346C5.54504 26.2346 4.55178 25.9765 3.6602 25.4604C2.78425 24.9442 2.08819 24.2481 1.57201 23.3722C1.07147 22.4806 0.821198 21.4951 0.821198 20.4159C0.821198 19.3209 1.07147 18.3355 1.57201 17.4595C2.08819 16.5836 2.78425 15.8954 3.6602 15.3948C4.55178 14.8786 5.54504 14.6205 6.63997 14.6205C7.50027 14.6205 8.29801 14.7848 9.03318 15.1133C9.76834 15.4261 10.4018 15.8875 10.9337 16.4976L9.52589 17.9053C9.18177 17.4986 8.75944 17.1936 8.2589 16.9903C7.77401 16.7713 7.23436 16.6618 6.63997 16.6618C5.93609 16.6618 5.31041 16.826 4.76295 17.1545C4.21548 17.4674 3.78533 17.9053 3.47249 18.4684C3.15966 19.0316 3.00324 19.6807 3.00324 20.4159C3.00324 21.151 3.15966 21.8002 3.47249 22.3633C3.78533 22.9264 4.21548 23.3722 4.76295 23.7006C5.31041 24.0291 5.93609 24.1934 6.63997 24.1934C7.23436 24.1934 7.77401 24.0917 8.2589 23.8883C8.75944 23.6694 9.18959 23.3565 9.54936 22.9498L10.9337 24.3576C10.4175 24.952 9.78398 25.4134 9.03318 25.7419C8.29801 26.0704 7.50027 26.2346 6.63997 26.2346ZM17.5383 26.2346C16.5215 26.2346 15.5987 25.9844 14.7696 25.4838C13.9406 24.9676 13.2837 24.2716 12.7988 23.3956C12.3295 22.5197 12.0949 21.5342 12.0949 20.4393C12.0949 19.3444 12.3295 18.359 12.7988 17.483C13.2837 16.6071 13.9328 15.911 14.7462 15.3948C15.5752 14.8786 16.5059 14.6205 17.5383 14.6205C18.3829 14.6205 19.1337 14.8004 19.7907 15.1602C20.4633 15.5043 21.0029 15.9892 21.4096 16.6149C21.8163 17.2249 22.0431 17.9366 22.09 18.75V22.1052C22.0431 22.9029 21.8163 23.6146 21.4096 24.2403C21.0186 24.866 20.4867 25.3587 19.8141 25.7184C19.1572 26.0626 18.3986 26.2346 17.5383 26.2346ZM17.8902 24.2403C18.9382 24.2403 19.7829 23.8883 20.4242 23.1845C21.0655 22.4649 21.3862 21.5499 21.3862 20.4393C21.3862 19.6729 21.2376 19.0081 20.9404 18.445C20.6588 17.8662 20.2521 17.4204 19.7203 17.1076C19.1885 16.7791 18.5706 16.6149 17.8667 16.6149C17.1628 16.6149 16.5372 16.7791 15.9897 17.1076C15.4579 17.4361 15.0356 17.8897 14.7227 18.4684C14.4255 19.0316 14.2769 19.6807 14.2769 20.4159C14.2769 21.1667 14.4255 21.8314 14.7227 22.4102C15.0356 22.9733 15.4657 23.4191 16.0132 23.7476C16.5606 24.0761 17.1863 24.2403 17.8902 24.2403ZM21.2454 26V22.9968L21.6442 20.2751L21.2454 17.5769V14.8552H23.3805V26H21.2454ZM28.0045 26V13.1893C28.0045 12.3603 28.1844 11.6408 28.5441 11.0307C28.9039 10.4051 29.3966 9.91235 30.0223 9.55258C30.6636 9.19282 31.4066 9.01294 32.2513 9.01294C32.8926 9.01294 33.4479 9.12243 33.9171 9.34142C34.3864 9.5604 34.8165 9.88106 35.2076 10.3034L33.8233 11.6642C33.6199 11.4452 33.3931 11.281 33.1428 11.1715C32.8926 11.0464 32.5876 10.9838 32.2278 10.9838C31.5552 10.9838 31.0312 11.1793 30.6558 11.5704C30.296 11.9614 30.1161 12.5011 30.1161 13.1893V26H28.0045ZM25.2593 16.7791V14.8552H33.659V16.7791H25.2593ZM40.3006 26.2346C39.1901 26.2346 38.189 25.9844 37.2974 25.4838C36.4058 24.9676 35.7019 24.2716 35.1858 23.3956C34.6696 22.5197 34.4115 21.5264 34.4115 20.4159C34.4115 19.3209 34.6618 18.3355 35.1623 17.4595C35.6785 16.5836 36.3667 15.8954 37.227 15.3948C38.103 14.8786 39.0806 14.6205 40.1599 14.6205C41.1922 14.6205 42.0995 14.8552 42.8816 15.3244C43.6793 15.7937 44.2971 16.4428 44.7351 17.2718C45.1887 18.1009 45.4155 19.0394 45.4155 20.0874C45.4155 20.2438 45.4077 20.4159 45.3921 20.6036C45.3764 20.7756 45.3451 20.979 45.2982 21.2136H35.8896V19.4539H44.172L43.3977 20.1343C43.3977 19.3835 43.2648 18.75 42.9989 18.2338C42.733 17.702 42.3575 17.2953 41.8727 17.0138C41.3878 16.7166 40.8012 16.568 40.1129 16.568C39.3934 16.568 38.7599 16.7244 38.2125 17.0372C37.665 17.3501 37.2427 17.788 36.9455 18.3511C36.6483 18.9142 36.4997 19.579 36.4997 20.3455C36.4997 21.1276 36.6561 21.8158 36.9689 22.4102C37.2818 22.9889 37.7276 23.4426 38.3063 23.771C38.8851 24.0839 39.5498 24.2403 40.3006 24.2403C40.9263 24.2403 41.4972 24.1308 42.0134 23.9118C42.5453 23.6928 42.9989 23.3643 43.3743 22.9264L44.7351 24.3107C44.2033 24.9364 43.5463 25.4134 42.7642 25.7419C41.9978 26.0704 41.1766 26.2346 40.3006 26.2346ZM52.434 26.2346C51.4017 26.2346 50.4788 25.9844 49.6654 25.4838C48.852 24.9676 48.2029 24.2716 47.718 23.3956C47.2487 22.5197 47.0141 21.5342 47.0141 20.4393C47.0141 19.3444 47.2487 18.359 47.718 17.483C48.2029 16.6071 48.852 15.911 49.6654 15.3948C50.4788 14.8786 51.4017 14.6205 52.434 14.6205C53.263 14.6205 54.0139 14.8004 54.6864 15.1602C55.3591 15.5043 55.8987 15.9892 56.3054 16.6149C56.7277 17.2249 56.9623 17.9366 57.0093 18.75V22.1052C56.9623 22.9029 56.7355 23.6146 56.3288 24.2403C55.9222 24.866 55.3825 25.3587 54.7099 25.7184C54.0373 26.0626 53.2787 26.2346 52.434 26.2346ZM52.786 24.2403C53.4898 24.2403 54.0999 24.0761 54.6161 23.7476C55.1479 23.4191 55.5624 22.9733 55.8596 22.4102C56.1568 21.8314 56.3054 21.1745 56.3054 20.4393C56.3054 19.6729 56.149 19.0081 55.8361 18.445C55.5389 17.8819 55.1244 17.4361 54.5926 17.1076C54.0764 16.7791 53.4664 16.6149 52.7625 16.6149C52.0586 16.6149 51.4408 16.7791 50.9089 17.1076C50.3771 17.4361 49.9548 17.8897 49.6419 18.4684C49.3448 19.0316 49.1962 19.6807 49.1962 20.4159C49.1962 21.1667 49.3448 21.8314 49.6419 22.4102C49.9548 22.9733 50.3771 23.4191 50.9089 23.7476C51.4564 24.0761 52.0821 24.2403 52.786 24.2403ZM58.2997 26H56.1646V22.9968L56.5635 20.2751L56.1646 17.5769V9.24757H58.2997V26ZM66.5359 26.2346C65.4253 26.2346 64.4242 25.9844 63.5327 25.4838C62.6411 24.9676 61.9372 24.2716 61.421 23.3956C60.9048 22.5197 60.6467 21.5264 60.6467 20.4159C60.6467 19.3209 60.897 18.3355 61.3975 17.4595C61.9137 16.5836 62.602 15.8954 63.4623 15.3948C64.3382 14.8786 65.3158 14.6205 66.3951 14.6205C67.4275 14.6205 68.3347 14.8552 69.1168 15.3244C69.9145 15.7937 70.5324 16.4428 70.9704 17.2718C71.424 18.1009 71.6508 19.0394 71.6508 20.0874C71.6508 20.2438 71.643 20.4159 71.6273 20.6036C71.6117 20.7756 71.5804 20.979 71.5335 21.2136H62.1249V19.4539H70.4073L69.633 20.1343C69.633 19.3835 69.5 18.75 69.2341 18.2338C68.9682 17.702 68.5928 17.2953 68.1079 17.0138C67.623 16.7166 67.0364 16.568 66.3482 16.568C65.6287 16.568 64.9952 16.7244 64.4477 17.0372C63.9002 17.3501 63.4779 17.788 63.1807 18.3511C62.8835 18.9142 62.7349 19.579 62.7349 20.3455C62.7349 21.1276 62.8913 21.8158 63.2042 22.4102C63.517 22.9889 63.9628 23.4426 64.5416 23.771C65.1203 24.0839 65.7851 24.2403 66.5359 24.2403C67.1616 24.2403 67.7325 24.1308 68.2487 23.9118C68.7805 23.6928 69.2341 23.3643 69.6095 22.9264L70.9704 24.3107C70.4385 24.9364 69.7816 25.4134 68.9995 25.7419C68.233 26.0704 67.4118 26.2346 66.5359 26.2346ZM78.6927 26.2346C77.676 26.2346 76.7531 25.9844 75.9241 25.4838C75.0951 24.9676 74.4382 24.2716 73.9533 23.3956C73.484 22.5197 73.2494 21.5342 73.2494 20.4393C73.2494 19.3444 73.484 18.359 73.9533 17.483C74.4382 16.6071 75.0873 15.911 75.9007 15.3948C76.7297 14.8786 77.6604 14.6205 78.6927 14.6205C79.5374 14.6205 80.2882 14.8004 80.9452 15.1602C81.6178 15.5043 82.1574 15.9892 82.5641 16.6149C82.9708 17.2249 83.1976 17.9366 83.2445 18.75V22.1052C83.1976 22.9029 82.9708 23.6146 82.5641 24.2403C82.1731 24.866 81.6412 25.3587 80.9686 25.7184C80.3117 26.0626 79.553 26.2346 78.6927 26.2346ZM79.0447 24.2403C80.0927 24.2403 80.9373 23.8883 81.5787 23.1845C82.22 22.4649 82.5406 21.5499 82.5406 20.4393C82.5406 19.6729 82.392 19.0081 82.0948 18.445C81.8133 17.8662 81.4066 17.4204 80.8748 17.1076C80.343 16.7791 79.7251 16.6149 79.0212 16.6149C78.3173 16.6149 77.6917 16.7791 77.1442 17.1076C76.6124 17.4361 76.19 17.8897 75.8772 18.4684C75.58 19.0316 75.4314 19.6807 75.4314 20.4159C75.4314 21.1667 75.58 21.8314 75.8772 22.4102C76.19 22.9733 76.6202 23.4191 77.1677 23.7476C77.7151 24.0761 78.3408 24.2403 79.0447 24.2403ZM82.3999 26V22.9968L82.7987 20.2751L82.3999 17.5769V14.8552H84.535V26H82.3999ZM87.6093 26V9.24757H89.721V26H87.6093ZM94.5233 26V10.1861H96.635V26H94.5233ZM91.7782 16.7791V14.8552H99.3801V16.7791H91.7782ZM105.93 26.2346C105.023 26.2346 104.202 26.0313 103.467 25.6246C102.747 25.2023 102.184 24.6235 101.777 23.8883C101.37 23.1532 101.167 22.3007 101.167 21.3309V14.8552H103.279V21.2371C103.279 21.8471 103.38 22.3789 103.584 22.8325C103.803 23.2705 104.116 23.6068 104.522 23.8414C104.929 24.0761 105.406 24.1934 105.954 24.1934C106.783 24.1934 107.432 23.9353 107.901 23.4191C108.37 22.8873 108.605 22.1599 108.605 21.2371V14.8552H110.717V21.3309C110.717 22.3007 110.513 23.1532 110.106 23.8883C109.7 24.6235 109.137 25.2023 108.417 25.6246C107.713 26.0313 106.884 26.2346 105.93 26.2346ZM113.547 26V14.8552H115.658V26H113.547ZM115.658 19.6416L114.861 19.2896C114.861 17.8662 115.189 16.7322 115.846 15.8875C116.503 15.0429 117.449 14.6205 118.685 14.6205C119.248 14.6205 119.757 14.7222 120.21 14.9256C120.664 15.1133 121.086 15.4339 121.477 15.8875L120.093 17.3188C119.858 17.0685 119.6 16.8886 119.319 16.7791C119.037 16.6696 118.709 16.6149 118.333 16.6149C117.551 16.6149 116.91 16.8652 116.409 17.3657C115.909 17.8662 115.658 18.6249 115.658 19.6416ZM127.337 26.2346C126.32 26.2346 125.397 25.9844 124.568 25.4838C123.739 24.9676 123.082 24.2716 122.597 23.3956C122.128 22.5197 121.893 21.5342 121.893 20.4393C121.893 19.3444 122.128 18.359 122.597 17.483C123.082 16.6071 123.731 15.911 124.545 15.3948C125.374 14.8786 126.304 14.6205 127.337 14.6205C128.181 14.6205 128.932 14.8004 129.589 15.1602C130.262 15.5043 130.801 15.9892 131.208 16.6149C131.615 17.2249 131.842 17.9366 131.889 18.75V22.1052C131.842 22.9029 131.615 23.6146 131.208 24.2403C130.817 24.866 130.285 25.3587 129.613 25.7184C128.956 26.0626 128.197 26.2346 127.337 26.2346ZM127.689 24.2403C128.737 24.2403 129.581 23.8883 130.223 23.1845C130.864 22.4649 131.185 21.5499 131.185 20.4393C131.185 19.6729 131.036 19.0081 130.739 18.445C130.457 17.8662 130.051 17.4204 129.519 17.1076C128.987 16.7791 128.369 16.6149 127.665 16.6149C126.961 16.6149 126.336 16.7791 125.788 17.1076C125.256 17.4361 124.834 17.8897 124.521 18.4684C124.224 19.0316 124.075 19.6807 124.075 20.4159C124.075 21.1667 124.224 21.8314 124.521 22.4102C124.834 22.9733 125.264 23.4191 125.812 23.7476C126.359 24.0761 126.985 24.2403 127.689 24.2403ZM131.044 26V22.9968L131.443 20.2751L131.044 17.5769V14.8552H133.179V26H131.044ZM138.107 26.2346C137.669 26.2346 137.301 26.086 137.004 25.7888C136.723 25.476 136.582 25.1084 136.582 24.6861C136.582 24.2481 136.723 23.8883 137.004 23.6068C137.301 23.3096 137.669 23.161 138.107 23.161C138.545 23.161 138.905 23.3096 139.186 23.6068C139.483 23.8883 139.632 24.2481 139.632 24.6861C139.632 25.1084 139.483 25.476 139.186 25.7888C138.905 26.086 138.545 26.2346 138.107 26.2346ZM147.692 26.2346C146.597 26.2346 145.603 25.9765 144.712 25.4604C143.836 24.9442 143.14 24.2481 142.624 23.3722C142.123 22.4806 141.873 21.4951 141.873 20.4159C141.873 19.3209 142.123 18.3355 142.624 17.4595C143.14 16.5836 143.836 15.8954 144.712 15.3948C145.603 14.8786 146.597 14.6205 147.692 14.6205C148.552 14.6205 149.35 14.7848 150.085 15.1133C150.82 15.4261 151.454 15.8875 151.985 16.4976L150.578 17.9053C150.233 17.4986 149.811 17.1936 149.311 16.9903C148.826 16.7713 148.286 16.6618 147.692 16.6618C146.988 16.6618 146.362 16.826 145.815 17.1545C145.267 17.4674 144.837 17.9053 144.524 18.4684C144.211 19.0316 144.055 19.6807 144.055 20.4159C144.055 21.151 144.211 21.8002 144.524 22.3633C144.837 22.9264 145.267 23.3722 145.815 23.7006C146.362 24.0291 146.988 24.1934 147.692 24.1934C148.286 24.1934 148.826 24.0917 149.311 23.8883C149.811 23.6694 150.241 23.3565 150.601 22.9498L151.985 24.3576C151.469 24.952 150.836 25.4134 150.085 25.7419C149.35 26.0704 148.552 26.2346 147.692 26.2346ZM158.942 26.2346C157.847 26.2346 156.862 25.9765 155.986 25.4604C155.11 24.9442 154.414 24.2481 153.897 23.3722C153.381 22.4806 153.123 21.4873 153.123 20.3924C153.123 19.3131 153.381 18.3433 153.897 17.483C154.414 16.6071 155.11 15.911 155.986 15.3948C156.862 14.8786 157.847 14.6205 158.942 14.6205C160.021 14.6205 160.999 14.8786 161.875 15.3948C162.766 15.8954 163.47 16.5836 163.986 17.4595C164.503 18.3355 164.761 19.3131 164.761 20.3924C164.761 21.4873 164.503 22.4806 163.986 23.3722C163.47 24.2481 162.766 24.9442 161.875 25.4604C160.999 25.9765 160.021 26.2346 158.942 26.2346ZM158.942 24.1934C159.646 24.1934 160.271 24.0291 160.819 23.7006C161.366 23.3722 161.797 22.9264 162.109 22.3633C162.422 21.7845 162.579 21.1276 162.579 20.3924C162.579 19.6729 162.414 19.0316 162.086 18.4684C161.773 17.9053 161.343 17.4674 160.795 17.1545C160.264 16.826 159.646 16.6618 158.942 16.6618C158.238 16.6618 157.612 16.826 157.065 17.1545C156.517 17.4674 156.087 17.9053 155.774 18.4684C155.462 19.0316 155.305 19.6729 155.305 20.3924C155.305 21.1276 155.462 21.7845 155.774 22.3633C156.087 22.9264 156.517 23.3722 157.065 23.7006C157.612 24.0291 158.238 24.1934 158.942 24.1934ZM167.14 26V14.8552H169.252V26H167.14ZM174.672 26V19.2662C174.672 18.4372 174.413 17.788 173.897 17.3188C173.397 16.8339 172.763 16.5914 171.997 16.5914C171.481 16.5914 171.019 16.7009 170.612 16.9199C170.206 17.1389 169.877 17.4439 169.627 17.8349C169.377 18.226 169.252 18.6953 169.252 19.2427L168.383 18.8204C168.383 17.9757 168.563 17.2406 168.923 16.6149C169.299 15.9892 169.807 15.5043 170.448 15.1602C171.09 14.8004 171.809 14.6205 172.607 14.6205C173.389 14.6205 174.093 14.7926 174.718 15.1367C175.36 15.4808 175.86 15.9657 176.22 16.5914C176.595 17.2171 176.783 17.9601 176.783 18.8204V26H174.672ZM182.203 26V19.2662C182.203 18.4372 181.945 17.788 181.429 17.3188C180.928 16.8339 180.303 16.5914 179.552 16.5914C179.036 16.5914 178.566 16.7009 178.144 16.9199C177.737 17.1389 177.409 17.4439 177.159 17.8349C176.908 18.226 176.783 18.6953 176.783 19.2427L175.587 18.8204C175.633 17.9601 175.86 17.2249 176.267 16.6149C176.689 15.9892 177.229 15.5043 177.886 15.1602C178.543 14.8004 179.262 14.6205 180.044 14.6205C180.858 14.6205 181.585 14.7926 182.227 15.1367C182.868 15.4808 183.376 15.9657 183.752 16.5914C184.143 17.2171 184.338 17.9679 184.338 18.8438V26H182.203Z" fill="white"/>
<g clip-path="url(#clip0_103_1039)">
<path d="M193.332 15.9061V23.2096C193.332 25.2221 194.021 26.9344 195.399 28.3464C196.777 29.7584 198.449 30.4644 200.413 30.4644H202.456C204.231 30.4644 205.775 29.872 207.09 28.6872C208.405 27.5024 209.189 26.0174 209.442 24.2321H209.537C210.646 24.2321 211.605 23.8263 212.413 23.0148C213.22 22.2033 213.624 21.2295 213.624 20.0934C213.624 18.9573 213.22 17.9754 212.413 17.1477C211.605 16.32 210.646 15.9061 209.537 15.9061C209.537 15.3543 209.339 14.8755 208.943 14.4698C208.547 14.064 208.08 13.8611 207.541 13.8611H195.376C194.805 13.8611 194.322 14.064 193.926 14.4698C193.53 14.8755 193.332 15.3543 193.332 15.9061ZM209.537 17.9998C210.108 17.9998 210.591 18.2026 210.987 18.6084C211.383 19.0141 211.581 19.5092 211.581 20.0934C211.581 20.6453 211.383 21.124 210.987 21.5298C210.591 21.9355 210.108 22.1384 209.537 22.1384V17.9998ZM207.541 23.2096C207.541 24.6378 207.05 25.8551 206.068 26.8613C205.086 27.8676 203.882 28.3707 202.456 28.3707H200.413C199.019 28.3707 197.831 27.8676 196.849 26.8613C195.867 25.8551 195.376 24.6378 195.376 23.2096V15.9061H207.541V23.2096ZM200.223 7.19062C200.54 6.57388 200.445 6.08698 199.938 5.72992C199.399 5.37286 198.956 5.45401 198.607 5.97337L198.084 6.65503C197.514 7.59637 197.284 8.61074 197.395 9.69815C197.506 10.7856 197.942 11.7188 198.702 12.4978C198.892 12.6926 199.13 12.79 199.415 12.79C199.7 12.79 199.938 12.6926 200.128 12.4978C200.54 12.0109 200.54 11.524 200.128 11.0371C199.716 10.6151 199.478 10.1039 199.415 9.50339C199.352 8.90288 199.494 8.34294 199.843 7.82359L200.223 7.19062ZM203.787 9.77118L204.167 9.38166C204.611 8.92722 204.643 8.44032 204.262 7.92097C204.136 7.72621 203.922 7.62071 203.621 7.60448C203.32 7.58825 203.074 7.66129 202.884 7.82359L202.456 8.2131C201.759 8.82984 201.458 9.56019 201.554 10.4041C201.649 11.313 202.155 12.0434 203.074 12.5952C203.138 12.725 203.264 12.79 203.454 12.79C203.835 12.79 204.151 12.6277 204.405 12.3031C204.753 11.6863 204.611 11.1994 203.977 10.8424C203.629 10.6151 203.454 10.4366 203.454 10.3068L203.787 9.77118Z" fill="white"/>
</g>
<defs>
<clipPath id="clip0_103_1039">
<rect width="20.5299" height="24.9292" fill="white" transform="translate(193.332 5.53516)"/>
</clipPath>
</defs>
</svg>
